<svg xmlns="http://www.w3.org/2000/svg" version="1.1" xmlns:xlink="http://www.w3.org/1999/xlink" xmlns:svgjs="http://svgjs.com/svgjs" width="1440" height="560" preserveAspectRatio="none" viewBox="0 0 1440 560"><g mask="url(&quot;#SvgjsMask1142&quot;)" fill="none"><g transform="translate(0, 0)" stroke-linecap="round" stroke="url(#SvgjsRadialGradient1143)"><path d="M20 172.435 L20 251.185" stroke-width="26.25"></path><path d="M20 290.56 L20 316.81" stroke-width="26.25"></path><path d="M20 356.185 L20 387.565" stroke-width="26.25"></path><path d="M55 86.225 L55 164.975" stroke-width="26.25"></path><path d="M55 204.35 L55 309.35" stroke-width="26.25"></path><path d="M55 348.725 L55 473.765" stroke-width="26.25"></path><path d="M90 238.555 L90 321.445" stroke-width="26.25"></path><path d="M125 163.715 L125 396.285" stroke-width="26.25"></path><path d="M160 83.775 L160 293.775" stroke-width="26.25"></path><path d="M160 333.15 L160 385.65" stroke-width="26.25"></path><path d="M160 425.025 L160 476.225" stroke-width="26.25"></path><path d="M195 151.085 L195 203.585" stroke-width="26.25"></path><path d="M195 242.96 L195 295.46000000000004" stroke-width="26.25"></path><path d="M195 334.83500000000004 L195 408.915" stroke-width="26.25"></path><path d="M230 176.875 L230 383.125" stroke-width="26.25"></path><path d="M265 83.305 L265 476.695" stroke-width="26.25"></path><path d="M300 41.785 L300 173.035" stroke-width="26.25"></path><path d="M300 212.41 L300 518.215" stroke-width="26.25"></path><path d="M335 96.005 L335 332.255" stroke-width="26.25"></path><path d="M335 371.63 L335 397.88" stroke-width="26.25"></path><path d="M335 437.255 L335 464.005" stroke-width="26.25"></path><path d="M370 66.155 L370 249.905" stroke-width="26.25"></path><path d="M370 289.28 L370 493.845" stroke-width="26.25"></path><path d="M405 175.195 L405 227.695" stroke-width="26.25"></path><path d="M405 267.07 L405 293.32" stroke-width="26.25"></path><path d="M405 332.695 L405 384.805" stroke-width="26.25"></path><path d="M440 135.315 L440 424.685" stroke-width="26.25"></path><path d="M475 179.385 L475 205.635" stroke-width="26.25"></path><path d="M475 245.01 L475 271.26" stroke-width="26.25"></path><path d="M475 310.635 L475 380.615" stroke-width="26.25"></path><path d="M510 171.265 L510 388.735" stroke-width="26.25"></path><path d="M545 23.425 L545 207.175" stroke-width="26.25"></path><path d="M545 246.55 L545 536.575" stroke-width="26.25"></path><path d="M580 262.46500000000003 L580 297.535" stroke-width="26.25"></path><path d="M615 13.795 L615 546.215" stroke-width="26.25"></path><path d="M650 259.875 L650 300.125" stroke-width="26.25"></path><path d="M685 157.635 L685 236.385" stroke-width="26.25"></path><path d="M685 275.76 L685 402.365" stroke-width="26.25"></path><path d="M720 135.005 L720 240.005" stroke-width="26.25"></path><path d="M720 279.38 L720 331.88" stroke-width="26.25"></path><path d="M720 371.255 L720 424.995" stroke-width="26.25"></path><path d="M755 233.965 L755 326.025" stroke-width="26.25"></path><path d="M790 162.135 L790 214.635" stroke-width="26.25"></path><path d="M790 254.01 L790 397.865" stroke-width="26.25"></path><path d="M825 74.805 L825 284.805" stroke-width="26.25"></path><path d="M825 324.18 L825 376.68" stroke-width="26.25"></path><path d="M825 416.055 L825 485.195" stroke-width="26.25"></path><path d="M860 35.045 L860 524.955" stroke-width="26.25"></path><path d="M895 213.425 L895 346.575" stroke-width="26.25"></path><path d="M930 231.075 L930 328.925" stroke-width="26.25"></path><path d="M965 166.255 L965 245.005" stroke-width="26.25"></path><path d="M965 284.38 L965 310.63" stroke-width="26.25"></path><path d="M965 350.005 L965 393.745" stroke-width="26.25"></path><path d="M1000 219.365 L1000 340.635" stroke-width="26.25"></path><path d="M1035 263.685 L1035 296.315" stroke-width="26.25"></path><path d="M1070 63.255 L1070 194.505" stroke-width="26.25"></path><path d="M1070 233.88 L1070 365.13" stroke-width="26.25"></path><path d="M1070 404.505 L1070 496.745" stroke-width="26.25"></path><path d="M1105 243.365 L1105 316.635" stroke-width="26.25"></path><path d="M1140 73.845 L1140 257.595" stroke-width="26.25"></path><path d="M1140 296.97 L1140 486.155" stroke-width="26.25"></path><path d="M1175 203.015 L1175 356.985" stroke-width="26.25"></path><path d="M1210 143.405 L1210 195.905" stroke-width="26.25"></path><path d="M1210 235.28 L1210 416.605" stroke-width="26.25"></path><path d="M1245 26.925 L1245 533.075" stroke-width="26.25"></path><path d="M1280 231.945 L1280 328.055" stroke-width="26.25"></path><path d="M1315 151.065 L1315 229.815" stroke-width="26.25"></path><path d="M1315 269.19 L1315 321.69" stroke-width="26.25"></path><path d="M1315 361.065 L1315 408.935" stroke-width="26.25"></path><path d="M1350 73.035 L1350 486.965" stroke-width="26.25"></path><path d="M1385 234.455 L1385 325.545" stroke-width="26.25"></path><path d="M1420 144.625 L1420 249.625" stroke-width="26.25"></path><path d="M1420 289 L1420 415.375" stroke-width="26.25"></path></g></g><defs><mask id="SvgjsMask1142"><rect width="1440" height="560" fill="#ffffff"></rect></mask><radialGradient cx="1440" cy="280" r="1466.97" gradientUnits="userSpaceOnUse" id="SvgjsRadialGradient1143"><stop stop-color="rgba(4, 105, 214, 1)" offset="0"></stop><stop stop-color="rgba(48, 166, 234, 1)" offset="1"></stop></radialGradient></defs></svg>